<?xml version="1.0"?>
<svg xmlns="http://www.w3.org/2000/svg" xmlns:xlink="http://www.w3.org/1999/xlink" xmlns:svgjs="http://svgjs.com/svgjs" version="1.1" width="512px" height="512px" x="0" y="0" viewBox="0 0 64 64" style="enable-background:new 0 0 512 512" xml:space="preserve" class=""><g transform="matrix(-1,-1.2246467991473532e-16,1.2246467991473532e-16,-1,64,64)"><g id="Layer_61" data-name="Layer 61"><path d="m32 3.5a28.5 28.5 0 0 0 -28.5 28.5 28.5 28.5 0 0 0 28.5 28.5 28.5 28.5 0 0 0 28.5-28.5 28.5 28.5 0 0 0 -28.5-28.5zm13.34 28.79-14.28 20a.52.52 0 0 1 -.41.21h-3.9a2.51 2.51 0 0 1 -2.09-3.87l10.84-16.63-10.84-16.63a2.51 2.51 0 0 1 2.09-3.87h3.9a.52.52 0 0 1 .41.21l14.28 20a.48.48 0 0 1 0 .58z" fill="#fbf9f9" data-original="#000000" class=""/></g></g></svg>
