<svg id="Layer_1" enable-background="new 0 0 68 68" height="512" viewBox="0 0 68 68" width="512" xmlns="http://www.w3.org/2000/svg"><g><g><g><g><path d="m61.2187042 5.9352345v56.1295319c0 2.1733699-1.7618637 3.9352336-3.935234 3.9352336h-46.5669404c-2.1733704 0-3.9352345-1.7618637-3.9352345-3.9352341v-46.789917h9.3396168c2.1733685 0 3.9352341-1.7618647 3.9352341-3.9352341v-9.3396148h37.2273254c2.1733689 0 3.9352326 1.7618644 3.9352326 3.9352345z" fill="#e9edf4"/></g></g><g><g><path d="m6.7812953 15.2748508h9.3396168c2.1733685 0 3.9352341-1.7618647 3.9352341-3.9352341v-9.3396167z" fill="#8dd1fe"/></g></g></g><g><g><path d="m34.0350342 34-.0700684.039978.0500488-.079956z" fill="#ffc90d"/></g></g><g><g><path d="m34.0250244 33.9799805-.0200195.040039-.0300293-.040039z" fill="#387bfe"/></g></g><g><g><g><path d="m52.7487602 44.984108-.0647011.103363-5.1710014 9.1785736h-26.8116341v-9.3336983h32.0085144z" fill="#387bfe"/></g></g><g><g><path d="m20.7053719 54.2721405-5.4541312-9.2336769 13.4019709-23.2128964 8.0888996 4.6701279z" fill="#9ce843"/></g></g><g><g><path d="m52.709938 44.9323463h-10.7686347l-13.2895108-22.998003 10.7298146-.1034431z" fill="#ffc90d"/></g></g></g></g></svg>