<svg id="Layer_1" enable-background="new 0 0 512 512" height="512" viewBox="0 0 512 512" width="512" xmlns="http://www.w3.org/2000/svg" xmlns:xlink="http://www.w3.org/1999/xlink"><linearGradient id="SVGID_1_" gradientTransform="matrix(1 0 0 -1 0 512)" gradientUnits="userSpaceOnUse" x1="9.521" x2="502.479" y1="9.521" y2="502.48"><stop offset="0" stop-color="#fb2e7b"/><stop offset="1" stop-color="#ff855d"/></linearGradient><g id="_x31_5_Labyrinth"><g><path d="m397.875 405.323v-46.453h-38.333v147.797c0 2.948-2.385 5.333-5.333 5.333h-321.933c-17.646 0-32-14.354-32-32v-448c0-17.646 14.354-32 32-32h71.912c2.948 0 5.333 2.385 5.333 5.333v47.562c0 2.948-2.385 5.333-5.333 5.333h-54.474c-2.948 0-5.333-2.385-5.333-5.333s2.385-5.333 5.333-5.333h49.141v-36.896h-66.579c-11.766 0-21.333 9.568-21.333 21.333v66.697h247.469c2.948 0 5.333 2.385 5.333 5.333s-2.385 5.333-5.333 5.333h-247.469v190.152h87.724v-88.984h-43.345v44.495c0 2.948-2.385 5.333-5.333 5.333s-5.333-2.385-5.333-5.333v-49.828c0-2.948 2.385-5.333 5.333-5.333h54.01c2.948 0 5.333 2.385 5.333 5.333v99.651c0 2.948-2.385 5.333-5.333 5.333h-93.056v169.817c0 11.766 9.568 21.333 21.333 21.333h316.599v-147.794c0-2.948 2.385-5.333 5.333-5.333h49c2.948 0 5.333 2.385 5.333 5.333v46.453h42.791v-46.453c0-2.948 2.385-5.333 5.333-5.333s5.333 2.385 5.333 5.333v51.786c0 2.948-2.385 5.333-5.333 5.333h-53.457c-2.948 0-5.333-2.385-5.333-5.333zm81.849-405.323h-327.807c-2.948 0-5.333 2.385-5.333 5.333v47.734c0 2.948 2.385 5.333 5.333 5.333s5.333-2.385 5.333-5.333v-42.4h192.224v93.364c0 2.948 2.385 5.333 5.333 5.333h50.292c2.948 0 5.333-2.385 5.333-5.333v-44.697h40.902v241.355h-246.563c-2.948 0-5.333 2.385-5.333 5.333v47.62c0 2.948 2.385 5.333 5.333 5.333h100.208c2.948 0 5.333-2.385 5.333-5.333s-2.385-5.333-5.333-5.333h-94.875v-36.953h246.563c2.948 0 5.333-2.385 5.333-5.333v-252.023c0-2.948-2.385-5.333-5.333-5.333h-51.568c-2.948 0-5.333 2.385-5.333 5.333v44.698h-39.625v-88.032h119.584c11.766 0 21.333 9.568 21.333 21.333v448c0 11.766-9.568 21.333-21.333 21.333h-70.694v-40.541h47.635c2.948 0 5.333-2.385 5.333-5.333s-2.385-5.333-5.333-5.333h-52.969c-2.948 0-5.333 2.385-5.333 5.333v51.208c0 2.948 2.385 5.333 5.333 5.333h76.026c17.646 0 32-14.354 32-32v-447.999c.001-17.646-14.353-32-31.999-32zm-429.844 147.781c-2.948 0-5.333 2.385-5.333 5.333s2.385 5.333 5.333 5.333h255.099c2.948 0 5.333-2.385 5.333-5.333v-99.114c0-2.948-2.385-5.333-5.333-5.333h-105.614c-2.948 0-5.333 2.385-5.333 5.333s2.385 5.333 5.333 5.333h100.281v88.448zm355.219 112.579c2.948 0 5.333-2.385 5.333-5.333v-101.913c0-2.948-2.385-5.333-5.333-5.333h-51.969c-2.948 0-5.333 2.385-5.333 5.333v46.75h-195.88c-2.948 0-5.333 2.385-5.333 5.333s2.385 5.333 5.333 5.333h201.214c2.948 0 5.333-2.385 5.333-5.333v-46.75h41.303v91.245h-247.85c-2.948 0-5.333 2.385-5.333 5.333v148.068c0 2.948 2.385 5.333 5.333 5.333h147.729v43.818h-190.313v-99.443c0-2.948-2.385-5.333-5.333-5.333h-54.12c-2.948 0-5.333 2.385-5.333 5.333v106.12c0 2.948 2.385 5.333 5.333 5.333s5.333-2.385 5.333-5.333v-100.786h43.454v99.443c0 2.948 2.385 5.333 5.333 5.333h200.98c2.948 0 5.333-2.385 5.333-5.333v-54.484c0-2.948-2.385-5.333-5.333-5.333h-147.73v-137.4h247.849zm-278.698-176.928h51.032c2.948 0 5.333-2.385 5.333-5.333v-42.219h141.057v138.276h-199.182c-2.948 0-5.333 2.385-5.333 5.333v144.656h-55.256c-2.948 0-5.333 2.385-5.333 5.333s2.385 5.333 5.333 5.333h60.589c2.948 0 5.333-2.385 5.333-5.333v-144.656h199.182c2.948 0 5.333-2.385 5.333-5.333v-148.942c0-2.948-2.385-5.333-5.333-5.333h-151.724c-2.948 0-5.333 2.385-5.333 5.333v42.219h-45.698c-2.948 0-5.333 2.385-5.333 5.333s2.385 5.333 5.333 5.333z" fill="url(#SVGID_1_)"/></g></g></svg>