<svg clip-rule="evenodd" fill-rule="evenodd" height="512" image-rendering="optimizeQuality" shape-rendering="geometricPrecision" text-rendering="geometricPrecision" viewBox="0 0 4335 4335" width="512" xmlns="http://www.w3.org/2000/svg"><g id="Layer_x0020_1"><g id="_272751256"><path d="m4254 4335h-4173c-45 0-81-36-81-81v-4173c0-45 36-81 81-81h4173c45 0 81 36 81 81v4173c0 45-36 81-81 81z" fill="#375e7d"/><path d="m163 831h4009 163v-750c0-45-36-81-81-81h-4173c-45 0-81 36-81 81v750z" fill="#375e7d"/><path d="m718 497h-288c-45 0-82-36-82-81s37-82 82-82h288c45 0 81 37 81 82s-36 81-81 81z" fill="#ef5350"/><path d="m1235 497h-288c-45 0-81-36-81-81s36-82 81-82h288c45 0 81 37 81 82s-36 81-81 81z" fill="#ffc107"/><path d="m1752 497h-288c-45 0-81-36-81-81s36-82 81-82h288c45 0 81 37 81 82s-36 81-81 81z" fill="#4fba6f"/><path d="m3905 497h-1557c-45 0-82-36-82-81s37-82 82-82h1557c45 0 82 37 82 82s-37 81-82 81z" fill="#c4ced3"/><path d="m163 4172h4009v-3341h-4009z" fill="#f5f5f5"/><g fill="#3b566a"><path d="m3900 1289h-913c-32 0-58-25-58-57s26-58 58-58h913c32 0 58 26 58 58s-26 57-58 57z"/><path d="m3900 1653h-1462c-32 0-58-25-58-57s26-58 58-58h1462c32 0 58 26 58 58s-26 57-58 57z"/><path d="m3900 2017h-1462c-32 0-58-26-58-57 0-32 26-58 58-58h1462c32 0 58 26 58 58 0 31-26 57-58 57z"/><path d="m3900 2381h-1462c-32 0-58-26-58-57 0-32 26-58 58-58h1462c32 0 58 26 58 58 0 31-26 57-58 57z"/><path d="m3900 2745h-1462c-32 0-58-26-58-58 0-31 26-57 58-57h1462c32 0 58 26 58 57 0 32-26 58-58 58z"/><path d="m3900 3109h-913c-32 0-58-26-58-58 0-31 26-57 58-57h913c32 0 58 26 58 57 0 32-26 58-58 58z"/><path d="m3900 3473h-913c-32 0-58-26-58-58s26-57 58-57h913c32 0 58 25 58 57s-26 58-58 58z"/><path d="m3900 3837h-913c-32 0-58-26-58-58s26-57 58-57h913c32 0 58 25 58 57s-26 58-58 58z"/></g><path d="m1227 3067c-2 0-3 0-5-1-27-8-43-41-36-73l75-326c7-31 35-50 62-42 8 3 15 7 21 14 78-58 264-156 433 37l-5 7 49-16 75 326c5 25-3 50-20 64 12 78-6 234-218 468-268 295-395-257-431-458z" fill="#db9e82"/><path d="m1224 2826 37-159c7-31 35-50 62-42 8 3 15 7 21 14 78-58 264-156 433 37l-5 7 49-16 36 159c-93 55-201 86-316 86s-224-31-317-86z" fill="#c58e75"/><path d="m1541 2825c-300 0-543-244-543-544v-331c0-33 26-59 59-59 26-79 973-127 968 4 33 0 59 26 59 59v327c0 300-243 544-543 544z" fill="#db9e82"/><path d="m437 4172c-33 0-60-26-60-59v-552c0-337 275-612 612-612h195c16 0 31 6 42 18l315 314 314-314c12-12 27-18 43-18h195c337 0 612 275 612 612v552c0 33-27 59-60 59z" fill="#ffe270"/><path d="m870 4172h-433c-33 0-60-26-60-59v-493h493z" fill="#db9e82"/><path d="m930 4172h-119v-681c0-33 26-60 59-60s60 27 60 60z" fill="#ffcb65"/><path d="m1057 2147c-6 0-13-1-19-3-130-47-66-571 178-706 191-123 459-123 650 0 281 179 214 384 218 645 2 33-23 61-56 63-32 2-61-23-62-56-8-130-104-204-279-216-44 52-151 152-319 119-2-1-4-1-6-2-19-5-192-50-249 116-8 24-31 40-56 40z" fill="#171d24"/><rect fill="#171d24" height="44.289" rx="22" width="153.315" x="1208" y="2175"/><rect fill="#171d24" height="44.289" rx="22" width="153.315" x="1721" y="2175"/><rect fill="#171d24" height="42.99" rx="22" transform="matrix(0 1.03 -2.1 0 1329.65 2251.95)" width="148.82"/><rect fill="#171d24" height="42.99" rx="22" transform="matrix(0 1.03 -2.1 0 1842.43 2251.95)" width="148.82"/><rect fill="#b18069" height="44.289" rx="17" ry="22" width="115.671" x="1483" y="2363"/><rect fill="#b18069" height="44.289" rx="39" ry="22" width="270.532" x="1406" y="2516"/><path d="m1752 2329v-32c0-25 20-45 45-45v40c0 21-16 37-37 37z" fill="#f5f5f5"/><path d="m1239 2329v-32c0-25 21-45 45-45v40c0 21-16 37-37 37z" fill="#f5f5f5"/><path d="m2211 4172h434c33 0 60-26 60-59v-493h-494z" fill="#db9e82"/><path d="m2152 4172h119v-681c0-33-27-60-59-60-33 0-60 27-60 60z" fill="#ffcb65"/></g></g></svg>