<svg id="Capa_1" enable-background="new 0 0 512 512" height="512" viewBox="0 0 512 512" width="512" xmlns="http://www.w3.org/2000/svg"><g><g><path d="m80 292.33c-2.761 0-5-2.239-5-5v-50.48h-62.5c-2.761 0-5 2.239-5 5v203.96c0 2.761 2.239 5 5 5h166c2.761 0 5-2.239 5-5v-153.48z" fill="#fed2a4"/><g><path d="m38 445.81v-203.96c0-2.761 2.239-5 5-5h-30.5c-2.761 0-5 2.239-5 5v203.96c0 2.761 2.239 5 5 5h30.5c-2.761 0-5-2.238-5-5z" fill="#ffbd86"/></g></g><g><g><path d="m355.539 77.662h-190.837v42.148c0 2.761-2.239 5-5 5h-84.702v162.52c0 2.761 2.239 5 5 5h151.369c10.059-48.261 52.834-84.52 104.081-84.52 8.644 0 17.043 1.039 25.088 2.985v-128.133c.001-2.761-2.238-5-4.999-5z" fill="#c4e2ff"/><path d="m332.539 102.663h-167.837v17.148c0 2.761-2.239 5-5 5h-59.702v139.52c0 1.657 1.343 3 3 3h136.964c17.312-35.252 53.563-59.52 95.487-59.52.03 0 .059.001.088.001v-102.149c0-1.657-1.343-3-3-3z" fill="#0593fc"/><path d="m141.461 264.33v-139.52h-41.461v139.52c0 1.657 1.343 3 3 3h41.461c-1.657 0-3-1.343-3-3z" fill="#0182fc"/></g><path d="m298.21 214.522-29.655-39.99c-1.999-2.696-6.033-2.696-8.032 0l-34.35 46.322-49.061-66.16c-1.999-2.696-6.033-2.696-8.032 0l-69.08 93.154v16.482c0 1.657 1.343 3 3 3h136.964c11.901-24.234 32.752-43.273 58.246-52.808z" fill="#46cc8d"/><g><path d="m144.46 267.33c-1.657 0-2.999-1.344-2.999-3v-72.393l-41.461 55.911v16.482c0 1.035.525 1.948 1.323 2.488.479.323 1.056.512 1.677.512z" fill="#08b865"/></g><g><circle cx="293.039" cy="144.278" fill="#fe9901" r="15"/></g></g><g><path d="m480.725 71.81v58c0 2.761-2.239 5-5 5h-84.725c-2.761 0-5-2.239-5-5v-58c0-2.761 2.239-5 5-5h84.725c2.761 0 5 2.239 5 5z" fill="#fed2a4"/></g><g><path d="m417.275 129.81v-58c0-2.761 2.239-5 5-5h-31.275c-2.761 0-5 2.239-5 5v58c0 2.761 2.239 5 5 5h31.275c-2.761 0-5-2.238-5-5z" fill="#ffbd86"/></g><g><path d="m453.59 101.603c-1.155-2-4.042-2-5.196 0l-15.142 26.226-18.662-32.324c-1.155-2-4.042-2-5.196 0l-21.874 37.887c.9.875 2.125 1.418 3.48 1.418h81.762z" fill="#0593fc"/></g><g><path d="m498.935 450.748-76.077-76.077c-7.275 10.484-16.386 19.595-26.87 26.87l76.077 76.077c7.42 7.42 19.45 7.42 26.87 0 7.42-7.42 7.42-19.45 0-26.87z" fill="#a2c7f8"/><path d="m503.878 459.43c-7.411 5.193-17.693 4.497-24.313-2.123l-68.468-68.468c-4.626 4.684-9.684 8.938-15.109 12.702l76.077 76.077c7.42 7.42 19.45 7.42 26.87 0 4.93-4.93 6.564-11.892 4.943-18.188z" fill="#8db3df"/><g><g><circle cx="335.45" cy="314.133" fill="#647fa0" r="106.323"/></g><g><path d="m271 314.133c0-51.553 36.693-94.532 85.387-104.257-6.77-1.352-13.769-2.066-20.936-2.066-58.72 0-106.323 47.602-106.323 106.323s47.602 106.323 106.323 106.323c7.167 0 14.167-.714 20.936-2.066-48.694-9.724-85.387-52.703-85.387-104.257z" fill="#5e6f90"/></g><g><ellipse cx="335.451" cy="314.133" fill="#c4e2ff" rx="76.323" ry="76.323" transform="matrix(.924 -.383 .383 .924 -94.679 152.283)"/></g><g><path d="m301 314.133c0-34.824 23.453-64.254 55.387-73.38-6.658-1.903-13.676-2.943-20.936-2.943-42.085 0-76.323 34.238-76.323 76.323s34.238 76.323 76.323 76.323c7.26 0 14.278-1.041 20.936-2.943-31.934-9.126-55.387-38.555-55.387-73.38z" fill="#b3dafe"/></g></g></g><g><g><path d="m164.702 33.83v85.98c0 2.761-2.239 5-5 5h-123.702c-2.761 0-5-2.239-5-5v-85.98c0-2.761 2.239-5 5-5h123.702c2.761 0 5 2.239 5 5z" fill="#fed402"/></g><g><path d="m62.298 119.81v-85.98c0-2.761 2.239-5 5-5h-31.298c-2.761 0-5 2.239-5 5v85.98c0 2.761 2.239 5 5 5h31.298c-2.761 0-5-2.238-5-5z" fill="#fac600"/></g><circle cx="116.5" cy="64.31" fill="#fff" r="12.5"/><path d="m135.5 96.81c-14.046 0-27.024 3.269-37.538 8.801 4.931 5.682 8.418 12.185 10.021 19.199h51.719c2.761 0 5-2.239 5-5v-17.9c-8.745-3.251-18.669-5.1-29.202-5.1z" fill="#d88a55"/><g><path d="m44.5 83.477c-4.632 0-9.145.388-13.5 1.109v35.224c0 2.761 2.239 5 5 5h71.983c-5.369-23.491-31.738-41.333-63.483-41.333z" fill="#ea9b58"/></g><g><path d="m36 124.81h31.298c-2.761 0-5-2.239-5-5v-34.389c-5.654-1.261-11.622-1.944-17.798-1.944-4.632 0-9.145.387-13.5 1.109v35.224c0 2.762 2.239 5 5 5z" fill="#d88a55"/></g></g><g><path d="m44.5 387.83c-4.143 0-7.5 3.357-7.5 7.5s3.357 7.5 7.5 7.5h55.637c4.143 0 7.5-3.357 7.5-7.5s-3.357-7.5-7.5-7.5z"/><path d="m154 369.58c0-4.143-3.357-7.5-7.5-7.5h-102c-4.143 0-7.5 3.357-7.5 7.5s3.357 7.5 7.5 7.5h102c4.143 0 7.5-3.358 7.5-7.5z"/><path d="m146.5 336.33h-102c-4.143 0-7.5 3.357-7.5 7.5s3.357 7.5 7.5 7.5h102c4.143 0 7.5-3.357 7.5-7.5s-3.357-7.5-7.5-7.5z"/><path d="m146.5 310.58h-102c-4.143 0-7.5 3.357-7.5 7.5s3.357 7.5 7.5 7.5h102c4.143 0 7.5-3.357 7.5-7.5s-3.357-7.5-7.5-7.5z"/><path d="m293.039 166.778c12.406 0 22.5-10.094 22.5-22.5s-10.094-22.5-22.5-22.5-22.5 10.094-22.5 22.5 10.094 22.5 22.5 22.5zm0-30c4.136 0 7.5 3.364 7.5 7.5s-3.364 7.5-7.5 7.5-7.5-3.364-7.5-7.5 3.364-7.5 7.5-7.5z"/><path d="m391 142.31h84.725c6.893 0 12.5-5.607 12.5-12.5v-58c0-6.893-5.607-12.5-12.5-12.5h-84.725c-6.893 0-12.5 5.607-12.5 12.5v58c0 6.893 5.607 12.5 12.5 12.5zm8.692-15 12.3-21.305 12.3 21.305zm42.52 0 8.78-15.207 8.78 15.207zm4.882-21.958c.001 0 .001.001 0 0l.007.011c-.002-.004-.005-.007-.007-.011zm-53.594-31.042h79.725v46.301l-13.14-22.758c-1.869-3.237-5.353-5.249-9.091-5.25-.001 0-.001 0-.002 0-3.739 0-7.223 2.011-9.094 5.25l-8.646 14.977-12.166-21.073c-1.869-3.238-5.353-5.25-9.092-5.251-.001 0-.001 0-.002 0-3.738 0-7.223 2.011-9.094 5.25l-9.398 16.279z"/><path d="m504.238 445.444-71.8-71.8c10.67-17.327 16.835-37.711 16.835-59.51 0-51.441-34.304-95.012-81.234-109.062v-122.409c0-6.893-5.607-12.5-12.5-12.5h-183.338v-36.333c0-6.893-5.607-12.5-12.5-12.5h-123.701c-6.893 0-12.5 5.607-12.5 12.5v85.98c0 6.893 5.607 12.5 12.5 12.5h31.5v97.04h-55c-6.893 0-12.5 5.607-12.5 12.5v203.96c0 6.893 5.607 12.5 12.5 12.5h166c6.893 0 12.5-5.607 12.5-12.5v-58.804c0-4.143-3.357-7.5-7.5-7.5s-7.5 3.357-7.5 7.5v56.304h-161v-198.96h52.5v40.479h-23c-4.143 0-7.5 3.357-7.5 7.5s3.357 7.5 7.5 7.5h131.5v52.177c0 4.143 3.357 7.5 7.5 7.5s7.5-3.357 7.5-7.5v-52.176h31.53c-.591 4.687-.902 9.459-.902 14.304 0 62.763 51.061 113.823 113.822 113.823 21.8 0 42.184-6.165 59.511-16.836l71.801 71.801c5.166 5.166 11.952 7.749 18.738 7.749s13.572-2.583 18.737-7.749c5.006-5.005 7.763-11.66 7.763-18.739s-2.757-13.734-7.762-18.739zm-332.037-325.634v-9.647h99.799c4.143 0 7.5-3.357 7.5-7.5s-3.357-7.5-7.5-7.5h-99.799v-10h180.838v116.507c-3.289-.512-6.625-.878-10-1.101v-94.906c0-5.79-4.71-10.5-10.5-10.5h-25.539c-4.143 0-7.5 3.357-7.5 7.5s3.357 7.5 7.5 7.5h21.039v90.406c-9.372.607-18.444 2.337-27.068 5.085l-26.392-35.59c-2.348-3.164-6.101-5.054-10.04-5.054-3.94 0-7.693 1.89-10.041 5.054l-28.326 38.198-43.036-58.036c-2.348-3.164-6.101-5.054-10.041-5.054-3.939 0-7.692 1.89-10.04 5.054l-55.555 74.916v-92.832h52.201c6.893 0 12.5-5.607 12.5-12.5zm-62.702-11.034c7.904-2.863 16.803-4.466 26.001-4.466 7.442 0 14.848 1.036 21.701 3.02v9.98h-43.649c-1.08-2.956-2.433-5.81-4.053-8.534zm-70.999-72.446h118.701v55.506c-6.966-1.668-14.226-2.526-21.701-2.526-12.894 0-25.21 2.581-35.864 7.208-13.305-12.662-33.224-20.541-55.136-20.541-1.999 0-4.001.082-6 .219zm0 54.887c1.996-.16 4.001-.24 6-.24 23.508 0 44.005 10.641 52.65 26.333h-58.65zm44 193.613v-152.52h10v132.021c0 5.79 4.71 10.5 10.5 10.5h125.625c-1.205 3.265-2.26 6.602-3.166 9.999zm25-25v-9.504l65.595-88.456 47.053 63.452c1.415 1.907 3.649 3.032 6.024 3.032s4.609-1.125 6.024-3.032l32.343-43.614 21.996 29.662c-21.699 10.371-39.624 27.413-51.097 48.46zm129.128 54.303c0-54.491 44.331-98.823 98.822-98.823s98.823 44.332 98.823 98.823-44.332 98.823-98.823 98.823-98.822-44.331-98.822-98.823zm257.004 158.181c-4.483 4.484-11.78 4.484-16.263 0l-70.014-70.014c5.95-4.862 11.401-10.313 16.263-16.263l70.014 70.014c2.172 2.172 3.368 5.06 3.368 8.131 0 3.072-1.196 5.96-3.368 8.132z"/><path d="m411.263 325.74c-4.015-1.022-8.098 1.398-9.122 5.411-7.788 30.503-35.212 51.806-66.689 51.806-37.949 0-68.823-30.874-68.823-68.823s30.874-68.823 68.823-68.823c32.18 0 60.467 22.828 67.261 54.28.875 4.049 4.869 6.623 8.915 5.747 4.048-.875 6.621-4.866 5.747-8.915-8.275-38.308-42.729-66.112-81.923-66.112-46.221 0-83.823 37.603-83.823 83.823s37.603 83.823 83.823 83.823c38.338 0 71.738-25.945 81.223-63.095 1.024-4.014-1.399-8.098-5.412-9.122z"/><path d="m116.5 84.31c11.028 0 20-8.972 20-20s-8.972-20-20-20-20 8.972-20 20 8.972 20 20 20zm0-25c2.757 0 5 2.243 5 5s-2.243 5-5 5-5-2.243-5-5 2.243-5 5-5z"/></g></g></svg>