<svg height="512" viewBox="0 0 64 64" width="512" xmlns="http://www.w3.org/2000/svg"><g id="Layer_31" data-name="Layer 31"><path d="m49 32.48-9.9-27.48h-14.074l-18.026 6.627v14.342l12.863 35.7a2 2 0 0 0 2.565 1.208l26.572-9.769z" fill="#baced3"/><path d="m53.683 51.386-31.255 11.492a2 2 0 0 1 -2.565-1.208l-16.742-46.47a2.027 2.027 0 0 1 1.2-2.59l31.251-11.488a2 2 0 0 1 2.565 1.208l16.742 46.47a2.027 2.027 0 0 1 -1.196 2.586z" fill="#baced3"/><path d="m45 63h-34a2 2 0 0 1 -2-2v-54a2 2 0 0 1 2-2h38a2 2 0 0 1 2 2v50z" fill="#d6e4e8"/><g fill="#baced3"><path d="m12 44v-39h-1a2 2 0 0 0 -2 2v54a2 2 0 0 0 2 2h34l3-3h-20a16 16 0 0 1 -16-16z"/><path d="m45 63v-4a2 2 0 0 1 2-2h4z"/><path d="m51 37.721-14.86 14.86-2.14 6.419 6.419-2.14 10.581-10.581z"/></g><path d="m33.143 39.709h28.243v6.052h-28.243z" fill="#f8c460" transform="matrix(.707 -.707 .707 .707 -16.375 45.938)"/><path d="m52 37.049a.5.5 0 0 1 -.354-.853l2-2a.5.5 0 1 1 .708.707l-2 2a.5.5 0 0 1 -.354.146z" fill="#fff"/><path d="m34.533 43.064h28.243v2.121h-28.243z" fill="#faaf42" transform="matrix(.707 -.707 .707 .707 -16.951 47.328)"/><path d="m59.39 34.89-4.28-4.28.732-.731a3 3 0 0 1 4.243 0l.036.036a3 3 0 0 1 0 4.243z" fill="#8e969b"/><path d="m60.121 29.915-.036-.036a2.973 2.973 0 0 0 -1.875-.855 2.993 2.993 0 0 1 -.089 4.134l-.231.232 1.5 1.5.731-.732a3 3 0 0 0 0-4.243z" fill="#778084"/><path d="m35.14 50.581-2.14 6.419 6.419-2.14z" fill="#8e969b"/><path d="m33.75 54.75-.75 2.25 6.419-2.14-1.5-1.5z" fill="#778084"/><path d="m13 21h10v10h-10z" fill="#f96464"/><circle cx="40" cy="15" fill="#f96464" r="4"/><path d="m27 43 6-10 6 10z" fill="#f96464"/><path d="m60.792 29.171a4.007 4.007 0 0 0 -5.658 0l-.734.729-2.4 2.4v-17.3a1 1 0 0 0 -2 0v19.307l-15.567 15.567a1 1 0 0 0 -.242.391l-1.912 5.735h-19.279a1 1 0 0 0 0 2h20a1.014 1.014 0 0 0 .316-.051l6.419-2.14a1 1 0 0 0 .391-.242l9.874-9.874v10.307h-3a3 3 0 0 0 -3 3v3h-33a1 1 0 0 1 -1-1v-54a1 1 0 0 1 1-1h38a1 1 0 0 1 1 1v4a1 1 0 0 0 2 0v-4a3 3 0 0 0 -3-3h-9.2l-.723-2.008a2.995 2.995 0 0 0 -3.85-1.808l-10.379 3.816h-13.848a3 3 0 0 0 -3 3v3.194l-4.028 1.481a3.032 3.032 0 0 0 -1.792 3.868l5.82 16.157v29.3a3 3 0 0 0 3 3h34a1 1 0 0 0 .707-.293l6-6a1 1 0 0 0 .293-.707v-3.93l2.028-.745a3.032 3.032 0 0 0 1.792-3.868l-2.274-6.31 6.554-6.547.731-.732a4 4 0 0 0 -.036-5.694zm-24.875-27.11a.986.986 0 0 1 .756.032 1.009 1.009 0 0 1 .523.576l.479 1.331h-7.031zm-31.855 12.804a1.027 1.027 0 0 1 .6-1.313l3.338-1.227v13.469zm52.487 15.72a2.013 2.013 0 0 1 2.865.038 2 2 0 0 1 0 2.828l-.024.025-2.866-2.866zm-20.972 21.847 1.991 1.991-2.987 1zm11.423 5.568h1.586l-2.586 2.586v-1.586a1 1 0 0 1 1-1zm6.338-7.552-1.338.492v-7.184l1.938 5.379a1.027 1.027 0 0 1 -.6 1.313zm-13.919 3-2.865-2.865 18.556-18.559 2.866 2.866z"/><path d="m12 21v10a1 1 0 0 0 1 1h10a1 1 0 0 0 1-1v-10a1 1 0 0 0 -1-1h-10a1 1 0 0 0 -1 1zm2 1h8v8h-8z"/><path d="m17.351 17.24a1 1 0 1 0 1.3 1.52 13.22 13.22 0 0 1 10.2-3.024l-.557.557a1 1 0 1 0 1.414 1.414l2-2a1 1 0 0 0 0-1.414l-2-2a1 1 0 0 0 -1.433 1.386 15.145 15.145 0 0 0 -10.924 3.561z"/><path d="m40 10a5 5 0 1 0 5 5 5.006 5.006 0 0 0 -5-5zm0 8a3 3 0 1 1 3-3 3 3 0 0 1 -3 3z"/><path d="m16 54h14a1 1 0 0 0 0-2h-14a1 1 0 0 0 0 2z"/><path d="m13 50h10a1 1 0 0 0 0-2h-10a1 1 0 0 0 0 2z"/><path d="m33 49a1 1 0 0 0 -1-1h-5a1 1 0 0 0 0 2h5a1 1 0 0 0 1-1z"/><path d="m39.87 43.493a1 1 0 0 0 -.013-1.008l-6-10a1.039 1.039 0 0 0 -1.714 0l-6 10a1 1 0 0 0 .857 1.515h12a1 1 0 0 0 .87-.507zm-11.104-1.493 4.234-7.056 4.234 7.056z"/><path d="m44 21.917a1 1 0 0 0 -2 .166c.251 3-.764 6.067-3 9.127v-1.21a1 1 0 0 0 -2 0v4a1 1 0 0 0 1.243.97l4-1a1 1 0 1 0 -.486-1.94l-1.075.269a15.372 15.372 0 0 0 3.318-10.382z"/><path d="m22 37h4a1 1 0 0 0 0-2h-4a5.006 5.006 0 0 0 -5 5v2.586l-.293-.293a1 1 0 0 0 -1.414 1.414l2 2a1 1 0 0 0 1.414 0l2-2a1 1 0 0 0 -1.414-1.414l-.293.293v-2.586a3 3 0 0 1 3-3z"/></g></svg>