<svg id="Layer_1" enable-background="new 0 0 256 256" height="512" viewBox="0 0 256 256" width="512" xmlns="http://www.w3.org/2000/svg"><g><g><g><path d="m138.643 154.091 24.062 24.059 23.867-23.85 11-11v98.45c0 5.52-4.47 10-10 10h-169c-5.52 0-10-4.48-10-10v-227.5c0-5.52 4.48-10 10-10h169c5.53 0 10 4.48 10 10v80.92l-11 10.99z" fill="#afafaf"/></g><g><path d="m138.643 154.091 24.063 24.059 23.866-23.85v72.03h-167v-211.08h167v90.91z" fill="#f0c020"/></g><g><path d="m69.342 164.86c-13.81 0-25.01-11.19-25.01-25 0-16.203 15.246-28.071 30.68-24.34v18.67h18.67c3.727 15.414-8.112 30.67-24.34 30.67z" fill="#72c1e8"/></g><g><path d="m173.412 215.96h-128.99c-1.381 0-2.5-1.119-2.5-2.5s1.119-2.5 2.5-2.5h126.49v-43.51c0-1.381 1.119-2.5 2.5-2.5s2.5 1.119 2.5 2.5v46.01c0 1.381-1.119 2.5-2.5 2.5zm-138.99 0h-3.68c-1.381 0-2.5-1.119-2.5-2.5s1.119-2.5 2.5-2.5h3.68c1.381 0 2.5 1.119 2.5 2.5s-1.119 2.5-2.5 2.5z" fill="#f9e5af"/></g><g><path d="m173.412 121.82c-1.381 0-2.5-1.119-2.5-2.5v-91.25c0-1.381 1.119-2.5 2.5-2.5s2.5 1.119 2.5 2.5v91.25c0 1.381-1.119 2.5-2.5 2.5z" fill="#f9e5af"/></g><g><g><path d="m244.31 96.56-10.53 10.54-24.07-24.07 10.53-10.54c4.15-4.16 10.89-4.16 15.05 0l9.02 9.03c4.16 4.15 4.16 10.89 0 15.04z" fill="#fc5d3d"/></g><g><path d="m209.71 83.03-12.14 12.14-11 10.99-47.927 47.931 24.063 24.059 23.864-23.85 11-11 36.21-36.2z" fill="#13bf6d"/><g><path d="m162.518 167.181c-.977-.976-.977-2.559 0-3.535l55.829-55.829-10.558-10.557c-.977-.976-.977-2.559 0-3.535.977-.977 2.559-.977 3.535 0l12.325 12.325c.976.976.976 2.559 0 3.535l-57.597 57.596c-.976.976-2.558.976-3.534 0z" fill="#76ffba"/></g><path d="m138.643 154.091-7.223 16.839 14.45 14.45 16.836-7.23z" fill="#edaf85"/><g><path d="m145.867 185.385-25.28 10.83 10.83-25.28z" fill="#7a7380"/></g><g><path d="m232.011 98.077c-.977-.976-.977-2.559 0-3.535l4.883-4.883c.268-.268.265-.699.001-.963l-3.008-3.009c-.977-.977-.977-2.56 0-3.536s2.561-.976 3.535 0l3.006 3.007c2.216 2.209 2.227 5.812 0 8.037l-4.882 4.882c-.977.977-2.559.977-3.535 0z" fill="#ffcbc2"/></g></g></g><g><g><path d="m95.432 107.61 15.44-26.57h-35.86v53.15h50.46v-26.58z" fill="#fc5d3d"/></g><g><path d="m127.212 52.93-16.34 28.11-15.44 26.57h30.04 33.53z" fill="#72c1e8"/></g></g></g><g><path d="m95.077 236.542c-1.381 0-2.5 1.119-2.5 2.5s1.119 2.5 2.5 2.5h16c1.381 0 2.5-1.119 2.5-2.5s-1.119-2.5-2.5-2.5z"/><path d="m246.076 79.757-9.021-9.032c-5.13-5.129-13.452-5.145-18.587.001l-18.399 18.402v-74.878c0-6.89-5.609-12.5-12.5-12.5h-169c-6.89 0-12.5 5.61-12.5 12.5v227.5c0 6.89 5.61 12.5 12.5 12.5h133.171c1.369 0 2.5-1.12 2.5-2.5s-1.131-2.5-2.5-2.5h-133.171c-4.13-.01-7.489-3.37-7.5-7.5v-227.5c.011-4.13 3.37-7.49 7.5-7.5h169c4.131.01 7.49 3.37 7.5 7.5v79.877l-6 5.999v-84.876c0-1.385-1.109-2.5-2.5-2.5h-167c-1.381 0-2.5 1.125-2.5 2.5v20.11c0 1.38 1.12 2.5 2.5 2.5 1.381 0 2.5-1.12 2.5-2.5v-.01-17.6h162v87.375l-24.92 24.915c-1.002 1.003-.971 2.588 0 3.54.94.95 2.591.95 3.53 0l47.03-47.01 8.493 8.494-67.526 67.526-8.504-8.504 6.367-6.367c.964-.964.98-2.549 0-3.53-.95-.95-2.59-.95-3.54 0l-8.13 8.12c-.25.255-.438.563-.563.896l-18.019 42.024c-.886 2.069 1.215 4.17 3.282 3.282l42.122-18.06c.213-.092.582-.328.786-.532l19.59-19.584v63.494h-162v-168.469c0-1.38-1.119-2.5-2.5-2.5-1.38 0-2.5 1.12-2.5 2.5v170.97c0 1.389 1.136 2.5 2.5 2.5h167c1.388 0 2.5-1.112 2.5-2.5v-70.993l6-5.998v92.411c-.01 4.13-3.369 7.49-7.5 7.5h-15.827c-1.381 0-2.5 1.12-2.5 2.5s1.119 2.5 2.5 2.5h15.829c6.891 0 12.5-5.61 12.5-12.5v-97.41c38.18-38.168 29.006-28.993 46.007-46.009 5.137-5.127 5.143-13.444 0-18.574zm-24.338 18.842 8.506 8.507c-6.369 6.367-55.719 55.703-67.534 67.514-6.488-6.485-4.634-4.631-8.498-8.495zm-82.252 59.877 18.839 18.839-11.888 5.104-12.055-12.055zm-14.141 32.981 6.916-16.143 9.228 9.227zm117.197-96.663c-.001.001-.002.002-.003.003l-8.757 8.765-20.534-20.534 8.76-8.768c3.174-3.18 8.328-3.182 11.513.001l9.022 9.034c3.19 3.183 3.175 8.33-.001 11.499z"/><path d="m161.163 106.354-31.79-54.68c-.96-1.653-3.359-1.659-4.322 0l-15.614 26.866h-34.424c-1.381 0-2.5 1.119-2.5 2.5v31.502c-16.296-1.894-30.681 10.886-30.681 27.318 0 15.164 12.341 27.5 27.51 27.5 16.437 0 29.209-14.38 27.318-30.67h28.813c1.381 0 2.5-1.119 2.5-2.5v-24.08h31.029c1.926 0 3.129-2.095 2.161-3.756zm-91.821 56.006c-12.412 0-22.51-10.093-22.51-22.5 0-13.735 12.241-24.214 25.681-22.276v16.606c0 1.381 1.119 2.5 2.5 2.5h16.606c1.926 13.49-8.581 25.67-22.277 25.67zm53.631-30.67c-21.563 0-23.469 0-45.46 0 0-15.067 0-33.055 0-48.15h29.016l-13.257 22.814c-.97 1.665.238 3.756 2.161 3.756h27.54zm-23.197-26.58 27.436-47.206 27.444 47.206c-10.586 0-44.171 0-54.88 0z"/><path d="m152.069 137.12c-.97.97-.97 2.56 0 3.53 1.038 1.016 2.609.932 3.54 0 .971-.97.971-2.56 0-3.53-.949-.95-2.589-.95-3.54 0z"/><circle cx="161.74" cy="251.75" r="2.5"/><circle cx="19.569" cy="45.36" r="2.5"/></g></g></svg>