<svg height="512pt" viewBox="0 0 512 512" width="512pt" xmlns="http://www.w3.org/2000/svg"><path d="m484.007812 504.5h-456.015624c-11.316407 0-20.492188-9.175781-20.492188-20.492188v-456.015624c0-11.316407 9.175781-20.492188 20.492188-20.492188h456.015624c11.316407 0 20.492188 9.175781 20.492188 20.492188v456.015624c0 11.316407-9.175781 20.492188-20.492188 20.492188zm0 0" fill="#edeff2"/><path d="m484.007812 7.5h-44c11.316407 0 20.492188 9.175781 20.492188 20.492188v456.015624c0 11.316407-9.175781 20.492188-20.492188 20.492188h44c11.316407 0 20.492188-9.175781 20.492188-20.492188v-456.015624c0-11.316407-9.175781-20.492188-20.492188-20.492188zm0 0" fill="#e1e2e5"/><path d="m57 138h397v146h-397zm0 0" fill="#feda5f"/><path d="m504.5 27.992188c0-11.316407-9.175781-20.492188-20.492188-20.492188h-456.015624c-11.316407 0-20.492188 9.175781-20.492188 20.492188v58.507812h497zm0 0" fill="#e1e2e5"/><path d="m484.007812 7.5h-44c11.316407 0 20.492188 9.175781 20.492188 20.492188v58.507812h44v-58.507812c0-11.316407-9.175781-20.492188-20.492188-20.492188zm0 0" fill="#c1c5cc"/><path d="m361 332h93v124h-93zm0 0" fill="#84eaf5"/><path d="m484.007812 0h-456.015624c-15.433594 0-27.992188 12.558594-27.992188 27.992188v382.007812c0 4.140625 3.355469 7.5 7.5 7.5s7.5-3.359375 7.5-7.5v-316h393c9.675781 0 9.675781-15 0-15h-393v-51.007812c0-7.164063 5.828125-12.992188 12.992188-12.992188h456.015624c7.164063 0 12.992188 5.828125 12.992188 12.992188v51.007812h-39c-9.675781 0-9.675781 15 0 15h39v390.007812c0 7.164063-5.828125 12.992188-12.992188 12.992188h-456.015624c-7.164063 0-12.992188-5.828125-12.992188-12.992188v-27.007812c0-4.140625-3.355469-7.5-7.5-7.5s-7.5 3.359375-7.5 7.5v27.007812c0 15.433594 12.558594 27.992188 27.992188 27.992188h456.015624c15.433594 0 27.992188-12.558594 27.992188-27.992188v-456.015624c0-15.433594-12.558594-27.992188-27.992188-27.992188zm0 0"/><path d="m462.101562 137.523438c0-4.285157-3.953124-7.8125-8.15625-7.5h-395.898437c-4.195313-.304688-8.148437 3.203124-8.148437 7.5v146.027343c0 4.140625 3.355468 7.5 7.5 7.5h397.203124c4.144532 0 7.5-3.359375 7.5-7.5zm-397.203124 10.6875 169.371093 62.289062-169.371093 62.289062zm34.792968-3.1875h312.617188l-156.308594 57.484374zm156.308594 73.46875 156.511719 57.558593h-313.023438zm21.730469-7.992188 169.371093-62.289062v124.578124zm0 0"/><path d="m63.464844 29.285156c-2.929688-2.925781-7.679688-2.925781-10.609375 0l-6.855469 6.859375-6.855469-6.859375c-2.929687-2.925781-7.679687-2.925781-10.609375 0-2.925781 2.929688-2.925781 7.679688 0 10.609375l6.859375 6.855469-6.859375 6.855469c-2.925781 2.929687-2.925781 7.679687 0 10.609375 1.46875 1.460937 3.386719 2.195312 5.304688 2.195312 1.921875 0 3.839844-.730468 5.304687-2.195312l6.855469-6.859375 6.855469 6.859375c1.464843 1.460937 3.386719 2.195312 5.304687 2.195312 1.917969 0 3.839844-.730468 5.304688-2.195312 2.929687-2.929688 2.929687-7.679688 0-10.609375l-6.859375-6.855469 6.859375-6.855469c2.929687-2.929687 2.929687-7.679687 0-10.609375zm0 0"/><path d="m57.398438 340h92c9.671874 0 9.671874-15 0-15h-92c-9.675782 0-9.675782 15 0 15zm0 0"/><path d="m149.5 381c9.675781 0 9.675781-15 0-15h-92c-9.675781 0-9.675781 15 0 15zm0 0"/><path d="m57.601562 422h92c9.675782 0 9.675782-15 0-15h-92c-9.671874 0-9.671874 15 0 15zm0 0"/><path d="m57.703125 463h92c9.675781 0 9.675781-15 0-15h-92c-9.671875 0-9.671875 15 0 15zm0 0"/><path d="m301.847656 340c9.671875 0 9.671875-15 0-15h-92c-9.675781 0-9.675781 15 0 15zm0 0"/><path d="m209.949219 381h92c9.671875 0 9.671875-15 0-15h-92c-9.675781 0-9.675781 15 0 15zm0 0"/><path d="m210.050781 422h92c9.675781 0 9.675781-15 0-15h-92c-9.675781 0-9.675781 15 0 15zm0 0"/><path d="m210.152344 463h92c9.675781 0 9.675781-15 0-15h-92c-9.671875 0-9.671875 15 0 15zm0 0"/><path d="m454.601562 413.5c4.144532 0 7.5-3.359375 7.5-7.5v-73.5c0-4.003906-3.132812-7.261719-7.082031-7.480469-.082031-.003906-.160156-.007812-.242187-.011719-.058594 0-.117188-.007812-.175782-.007812h-93c-4.417968 0-8.234374 4.234375-7.5 8.71875v120.5625c-.753906 4.601562 2.9375 8.71875 7.5 8.71875h92.894532c6.5 0 10.074218-8.203125 5.367187-12.84375l-42.460937-56.15625 29.699218-39.28125v51.28125c0 4.140625 3.359376 7.5 7.5 7.5zm-56.003906-19.5-29.496094 39.007812v-78.019531zm40.828125 54h-62.851562l31.425781-41.5625zm-62.851562-108h62.851562l-31.425781 41.5625zm0 0"/></svg>